<svg xmlns="http://www.w3.org/2000/svg" viewBox="0 0 355.3 310.97"><defs><style>.cls-1{fill:#facc15;}.cls-2{fill:#22c55e;}.cls-3,.cls-4{fill:#ef4444;}.cls-4{opacity:0.9;}</style></defs><title>Performances </title><g id="Calque_3" data-name="Calque 3"><path class="cls-1" d="M283.18,113.87v.28a1.48,1.48,0,0,1,0,.21,27.7,27.7,0,0,1-27.63,27.43,28.11,28.11,0,0,1-28-27.92v-.12a39.71,39.71,0,0,0-79.41-.09A27.72,27.72,0,0,0,120.46,86h-.4A27.72,27.72,0,0,0,92.42,113.5a95.38,95.38,0,0,1,190.76.37Z"/><path class="cls-2" d="M283.17,114.36A95.4,95.4,0,0,1,148.1,200.61V113.87a39.71,39.71,0,1,0,79.41,0,28.11,28.11,0,0,0,28,27.92A27.7,27.7,0,0,0,283.17,114.36Z"/></g><g id="Calque_8" data-name="Calque 8"><path class="cls-3" d="M120.06,86h.4a27.64,27.64,0,0,1,27.64,27.64v156.9a27.64,27.64,0,0,1-27.64,27.64h0a28,28,0,0,1-28-28V113.66A27.64,27.64,0,0,1,120.06,86Z"/></g><g id="Calque_9" data-name="Calque 9"><path class="cls-2" d="M283.17,114.36a95.38,95.38,0,0,1-190.75-.49v-.37A27.72,27.72,0,0,1,120.06,86h.4a27.72,27.72,0,0,1,27.64,27.64v.21a39.71,39.71,0,1,0,79.41,0,28.11,28.11,0,0,0,28,27.92A27.7,27.7,0,0,0,283.17,114.36Z"/></g><g id="Calque_6" data-name="Calque 6"><path class="cls-4" d="M148.1,113.66v87a95.36,95.36,0,0,1-55.68-86.74v-.37A27.72,27.72,0,0,1,120.06,86h.4A27.72,27.72,0,0,1,148.1,113.66Z"/></g></svg>